<svg xmlns="http://www.w3.org/2000/svg" xmlns:xlink="http://www.w3.org/1999/xlink" width="500" zoomAndPan="magnify" viewBox="0 0 375 374.999991" height="500" preserveAspectRatio="xMidYMid meet" version="1.0"><defs><g/></defs><rect x="-37.5" width="450" fill="#ffffff" y="-37.499999" height="449.999989" fill-opacity="1"/><rect x="-37.5" width="450" fill="#d6d3cd" y="-37.499999" height="449.999989" fill-opacity="1"/><g fill="#171716" fill-opacity="1"><g transform="translate(0.803909, 247.533997)"><g><path d="M 1.859375 -43.40625 L 32.171875 -43.40625 L 32.171875 -31.6875 L 31.8125 -31.6875 C 31.269531 -33.875 30.285156 -35.8125 28.859375 -37.5 C 27.429688 -39.195312 25.703125 -40.539062 23.671875 -41.53125 C 21.648438 -42.53125 19.460938 -43.03125 17.109375 -43.03125 L 16.484375 -43.03125 L 16.484375 -21.890625 C 18.765625 -21.890625 20.769531 -22.582031 22.5 -23.96875 C 24.238281 -25.351562 25.378906 -27.078125 25.921875 -29.140625 L 26.28125 -29.140625 L 26.28125 -14.265625 L 25.921875 -14.265625 C 25.378906 -16.328125 24.238281 -18.050781 22.5 -19.4375 C 20.769531 -20.820312 18.765625 -21.515625 16.484375 -21.515625 L 16.484375 -4.09375 C 16.484375 -3.0625 16.851562 -2.179688 17.59375 -1.453125 C 18.34375 -0.734375 19.238281 -0.375 20.28125 -0.375 L 20.28125 0 L 1.859375 0 L 1.859375 -0.375 C 2.890625 -0.375 3.765625 -0.734375 4.484375 -1.453125 C 5.210938 -2.179688 5.578125 -3.0625 5.578125 -4.09375 L 5.578125 -39.3125 C 5.578125 -40.34375 5.210938 -41.21875 4.484375 -41.9375 C 3.765625 -42.664062 2.890625 -43.03125 1.859375 -43.03125 Z M 1.859375 -43.40625 "/></g></g></g><g fill="#171716" fill-opacity="1"><g transform="translate(31.923496, 247.533997)"><g><path d="M 13.390625 -42.28125 L 13.390625 -3.40625 C 13.390625 -2.664062 13.632812 -2.003906 14.125 -1.421875 C 14.625 -0.847656 15.226562 -0.5 15.9375 -0.375 L 15.9375 0 L 1.546875 0 L 1.546875 -0.375 C 2.253906 -0.5 2.851562 -0.847656 3.34375 -1.421875 C 3.84375 -2.003906 4.09375 -2.664062 4.09375 -3.40625 L 4.09375 -38.4375 C 4.09375 -39.1875 3.84375 -39.847656 3.34375 -40.421875 C 2.851562 -41.003906 2.253906 -41.359375 1.546875 -41.484375 L 1.546875 -41.84375 L 12.15625 -43.40625 C 12.195312 -43.40625 12.226562 -43.40625 12.25 -43.40625 C 12.269531 -43.40625 12.300781 -43.40625 12.34375 -43.40625 C 13.039062 -43.40625 13.390625 -43.03125 13.390625 -42.28125 Z M 13.390625 -42.28125 "/></g></g></g><g fill="#171716" fill-opacity="1"><g transform="translate(45.871271, 247.533997)"><g><path d="M 27.65625 -4.65625 C 27.65625 -3.90625 27.898438 -3.238281 28.390625 -2.65625 C 28.890625 -2.082031 29.488281 -1.734375 30.1875 -1.609375 L 30.1875 -1.234375 L 19.53125 0.3125 C 19.53125 0.3125 19.519531 0.3125 19.5 0.3125 C 19.476562 0.3125 19.445312 0.3125 19.40625 0.3125 C 19.113281 0.3125 18.851562 0.195312 18.625 -0.03125 C 18.40625 -0.257812 18.296875 -0.519531 18.296875 -0.8125 L 18.296875 -2.359375 C 17.546875 -1.816406 16.539062 -1.234375 15.28125 -0.609375 C 14.019531 0.00390625 12.519531 0.3125 10.78125 0.3125 C 8.84375 0.3125 7.085938 -0.203125 5.515625 -1.234375 C 3.941406 -2.273438 2.929688 -3.660156 2.484375 -5.390625 C 1.984375 -7.171875 2.164062 -8.90625 3.03125 -10.59375 C 3.90625 -12.289062 5.1875 -13.65625 6.875 -14.6875 C 7.957031 -15.351562 9.320312 -15.984375 10.96875 -16.578125 C 12.625 -17.179688 14.359375 -17.78125 16.171875 -18.375 C 17.992188 -18.976562 19.703125 -19.597656 21.296875 -20.234375 C 22.890625 -20.878906 24.191406 -21.582031 25.203125 -22.34375 C 26.210938 -23.113281 26.71875 -23.972656 26.71875 -24.921875 C 26.71875 -25.742188 26.351562 -26.566406 25.625 -27.390625 C 24.90625 -28.222656 24.050781 -28.890625 23.0625 -29.390625 C 21.863281 -29.960938 20.539062 -30.351562 19.09375 -30.5625 C 17.644531 -30.769531 16.15625 -30.75 14.625 -30.5 C 12.269531 -30.175781 11.09375 -29.390625 11.09375 -28.140625 C 11.09375 -27.398438 11.320312 -26.757812 11.78125 -26.21875 C 12.238281 -25.6875 12.679688 -25.117188 13.109375 -24.515625 C 13.546875 -23.921875 13.765625 -23.148438 13.765625 -22.203125 C 13.765625 -20.878906 13.285156 -19.75 12.328125 -18.8125 C 11.378906 -17.882812 10.242188 -17.421875 8.921875 -17.421875 C 7.597656 -17.421875 6.472656 -17.882812 5.546875 -18.8125 C 4.617188 -19.75 4.15625 -20.878906 4.15625 -22.203125 C 4.15625 -23.804688 4.710938 -25.21875 5.828125 -26.4375 C 6.941406 -27.65625 8.316406 -28.644531 9.953125 -29.40625 C 11.585938 -30.175781 13.125 -30.664062 14.5625 -30.875 C 17.875 -31.375 20.769531 -30.984375 23.25 -29.703125 C 24.445312 -29.117188 25.476562 -28.300781 26.34375 -27.25 C 27.21875 -26.195312 27.65625 -24.90625 27.65625 -23.375 Z M 18.296875 -2.796875 L 18.296875 -18.71875 C 17.460938 -18.351562 16.539062 -17.847656 15.53125 -17.203125 C 14.519531 -16.566406 13.640625 -15.695312 12.890625 -14.59375 C 12.148438 -13.5 11.71875 -12.085938 11.59375 -10.359375 C 11.507812 -8.867188 11.632812 -7.554688 11.96875 -6.421875 C 12.300781 -5.285156 12.796875 -4.363281 13.453125 -3.65625 C 14.160156 -2.914062 14.976562 -2.460938 15.90625 -2.296875 C 16.832031 -2.128906 17.628906 -2.296875 18.296875 -2.796875 Z M 18.296875 -2.796875 "/></g></g></g><g fill="#171716" fill-opacity="1"><g transform="translate(74.07723, 247.533997)"><g><path d="M 26.109375 -6.703125 C 27.671875 -6.328125 29.0625 -5.617188 30.28125 -4.578125 C 31.5 -3.546875 32.46875 -2.285156 33.1875 -0.796875 C 33.914062 0.679688 34.28125 2.289062 34.28125 4.03125 C 34.28125 6.050781 33.804688 7.890625 32.859375 9.546875 C 31.910156 11.203125 30.648438 12.523438 29.078125 13.515625 C 27.503906 14.503906 25.769531 15 23.875 15 C 22.300781 15 20.8125 14.675781 19.40625 14.03125 C 18 13.394531 16.867188 12.539062 16.015625 11.46875 C 15.171875 10.394531 14.75 9.238281 14.75 8 C 14.75 6.675781 15.222656 5.535156 16.171875 4.578125 C 17.128906 3.628906 18.269531 3.15625 19.59375 3.15625 C 20.914062 3.15625 22.039062 3.628906 22.96875 4.578125 C 23.894531 5.535156 24.359375 6.675781 24.359375 8 C 24.359375 9.363281 23.90625 10.5 23 11.40625 C 22.707031 11.695312 22.457031 12.003906 22.25 12.328125 C 22.050781 12.660156 21.953125 12.992188 21.953125 13.328125 C 21.953125 14.191406 22.59375 14.625 23.875 14.625 C 25.726562 14.625 27.410156 14.148438 28.921875 13.203125 C 30.429688 12.253906 31.640625 10.972656 32.546875 9.359375 C 33.453125 7.742188 33.90625 5.96875 33.90625 4.03125 C 33.90625 2.539062 33.566406 1.195312 32.890625 0 C 32.210938 -1.195312 31.300781 -2.144531 30.15625 -2.84375 C 29.019531 -3.550781 27.75 -3.90625 26.34375 -3.90625 C 24.90625 -3.90625 23.59375 -3.519531 22.40625 -2.75 C 21.226562 -1.988281 20.125 -1.0625 19.09375 0.03125 C 18.0625 1.125 17.03125 2.226562 16 3.34375 C 14.96875 4.457031 13.847656 5.394531 12.640625 6.15625 C 11.441406 6.925781 10.082031 7.3125 8.5625 7.3125 C 7.113281 7.3125 5.78125 6.9375 4.5625 6.1875 C 3.34375 5.445312 2.378906 4.4375 1.671875 3.15625 C 0.972656 1.875 0.625 0.472656 0.625 -1.046875 C 0.625 -2.953125 1.160156 -4.640625 2.234375 -6.109375 C 3.304688 -7.578125 4.671875 -8.554688 6.328125 -9.046875 C 5.367188 -10.203125 4.617188 -11.492188 4.078125 -12.921875 C 3.546875 -14.347656 3.28125 -15.847656 3.28125 -17.421875 C 3.28125 -19.941406 3.921875 -22.234375 5.203125 -24.296875 C 6.484375 -26.367188 8.1875 -28.015625 10.3125 -29.234375 C 12.445312 -30.453125 14.816406 -31.0625 17.421875 -31.0625 C 19.523438 -31.0625 21.507812 -30.648438 23.375 -29.828125 C 22.34375 -30.773438 21.304688 -32.015625 20.265625 -33.546875 C 19.234375 -35.078125 18.71875 -36.75 18.71875 -38.5625 C 18.71875 -39.882812 19.191406 -41.019531 20.140625 -41.96875 C 21.097656 -42.925781 22.238281 -43.40625 23.5625 -43.40625 C 24.882812 -43.40625 26.007812 -42.925781 26.9375 -41.96875 C 27.863281 -41.019531 28.328125 -39.882812 28.328125 -38.5625 C 28.328125 -37.53125 28.023438 -36.617188 27.421875 -35.828125 C 26.828125 -35.046875 26.078125 -34.445312 25.171875 -34.03125 C 23.765625 -33.457031 23.0625 -32.675781 23.0625 -31.6875 C 23.0625 -31.144531 23.273438 -30.625 23.703125 -30.125 C 24.140625 -29.632812 24.671875 -29.179688 25.296875 -28.765625 C 27.234375 -27.523438 28.757812 -25.921875 29.875 -23.953125 C 31 -21.992188 31.5625 -19.816406 31.5625 -17.421875 C 31.5625 -15.273438 31.070312 -13.257812 30.09375 -11.375 C 29.125 -9.5 27.796875 -7.941406 26.109375 -6.703125 Z M 17.421875 -30.6875 C 14.234375 -30.6875 12.640625 -26.265625 12.640625 -17.421875 C 12.640625 -9.648438 13.882812 -5.289062 16.375 -4.34375 C 17.070312 -4.75 17.757812 -5.117188 18.4375 -5.453125 C 19.125 -5.785156 19.796875 -6.078125 20.453125 -6.328125 C 21.660156 -8.472656 22.265625 -12.171875 22.265625 -17.421875 C 22.265625 -26.265625 20.648438 -30.6875 17.421875 -30.6875 Z M 4.46875 -5.265625 C 4.46875 -4.148438 4.867188 -3.1875 5.671875 -2.375 C 6.472656 -1.570312 7.4375 -1.171875 8.5625 -1.171875 C 9.71875 -1.171875 10.875 -1.457031 12.03125 -2.03125 C 13.1875 -2.613281 14.382812 -3.238281 15.625 -3.90625 C 13.800781 -4.15625 12.101562 -4.710938 10.53125 -5.578125 C 8.96875 -6.441406 7.628906 -7.515625 6.515625 -8.796875 C 5.148438 -7.972656 4.46875 -6.796875 4.46875 -5.265625 Z M 4.46875 -5.265625 "/></g></g></g><g fill="#171716" fill-opacity="1"><g transform="translate(105.444786, 247.533997)"><g><path d="M 23.875 -16.984375 L 42.28125 -16.984375 L 42.28125 -16.609375 C 41.25 -16.609375 40.367188 -16.25 39.640625 -15.53125 C 38.921875 -14.8125 38.5625 -13.929688 38.5625 -12.890625 L 38.5625 0 C 37.820312 -0.457031 37.015625 -0.828125 36.140625 -1.109375 C 35.273438 -1.398438 34.265625 -1.546875 33.109375 -1.546875 C 31.617188 -1.546875 30.304688 -1.421875 29.171875 -1.171875 C 28.035156 -0.929688 26.910156 -0.675781 25.796875 -0.40625 C 24.679688 -0.132812 23.421875 0 22.015625 0 C 19.328125 0 16.800781 -0.554688 14.4375 -1.671875 C 12.082031 -2.785156 10.003906 -4.34375 8.203125 -6.34375 C 6.410156 -8.351562 5.007812 -10.671875 4 -13.296875 C 2.988281 -15.921875 2.484375 -18.722656 2.484375 -21.703125 C 2.484375 -24.671875 2.988281 -27.46875 4 -30.09375 C 5.007812 -32.71875 6.410156 -35.03125 8.203125 -37.03125 C 10.003906 -39.039062 12.082031 -40.601562 14.4375 -41.71875 C 16.800781 -42.84375 19.328125 -43.40625 22.015625 -43.40625 C 24.242188 -43.40625 26.347656 -43.019531 28.328125 -42.25 C 30.316406 -41.488281 32.082031 -40.507812 33.625 -39.3125 C 35.175781 -38.113281 36.390625 -36.8125 37.265625 -35.40625 C 37.671875 -34.738281 37.988281 -34.050781 38.21875 -33.34375 C 38.445312 -32.644531 38.5625 -31.96875 38.5625 -31.3125 C 38.5625 -29.488281 37.910156 -27.925781 36.609375 -26.625 C 35.304688 -25.320312 33.75 -24.671875 31.9375 -24.671875 C 30.113281 -24.671875 28.550781 -25.320312 27.25 -26.625 C 25.945312 -27.925781 25.296875 -29.488281 25.296875 -31.3125 C 25.296875 -32.34375 25.476562 -33.21875 25.84375 -33.9375 C 26.21875 -34.664062 26.644531 -35.304688 27.125 -35.859375 C 27.601562 -36.421875 28.023438 -36.976562 28.390625 -37.53125 C 28.765625 -38.09375 28.953125 -38.75 28.953125 -39.5 C 28.953125 -40.488281 28.515625 -41.238281 27.640625 -41.75 C 26.773438 -42.269531 25.796875 -42.613281 24.703125 -42.78125 C 23.609375 -42.945312 22.710938 -43.03125 22.015625 -43.03125 C 20.566406 -43.03125 19.234375 -42.066406 18.015625 -40.140625 C 16.796875 -38.222656 15.820312 -35.648438 15.09375 -32.421875 C 14.375 -29.203125 14.015625 -25.628906 14.015625 -21.703125 C 14.015625 -17.773438 14.375 -14.195312 15.09375 -10.96875 C 15.820312 -7.75 16.796875 -5.175781 18.015625 -3.25 C 19.234375 -1.332031 20.566406 -0.375 22.015625 -0.375 C 22.710938 -0.375 23.628906 -0.457031 24.765625 -0.625 C 25.898438 -0.789062 26.863281 -1.140625 27.65625 -1.671875 L 27.65625 -12.890625 C 27.65625 -13.929688 27.289062 -14.8125 26.5625 -15.53125 C 25.84375 -16.25 24.945312 -16.609375 23.875 -16.609375 Z M 23.875 -16.984375 "/></g></g></g><g fill="#171716" fill-opacity="1"><g transform="translate(145.429238, 247.533997)"><g><path d="M 27.65625 -4.65625 C 27.65625 -3.90625 27.898438 -3.238281 28.390625 -2.65625 C 28.890625 -2.082031 29.488281 -1.734375 30.1875 -1.609375 L 30.1875 -1.234375 L 19.53125 0.3125 C 19.53125 0.3125 19.519531 0.3125 19.5 0.3125 C 19.476562 0.3125 19.445312 0.3125 19.40625 0.3125 C 19.113281 0.3125 18.851562 0.195312 18.625 -0.03125 C 18.40625 -0.257812 18.296875 -0.519531 18.296875 -0.8125 L 18.296875 -2.359375 C 17.546875 -1.816406 16.539062 -1.234375 15.28125 -0.609375 C 14.019531 0.00390625 12.519531 0.3125 10.78125 0.3125 C 8.84375 0.3125 7.085938 -0.203125 5.515625 -1.234375 C 3.941406 -2.273438 2.929688 -3.660156 2.484375 -5.390625 C 1.984375 -7.171875 2.164062 -8.90625 3.03125 -10.59375 C 3.90625 -12.289062 5.1875 -13.65625 6.875 -14.6875 C 7.957031 -15.351562 9.320312 -15.984375 10.96875 -16.578125 C 12.625 -17.179688 14.359375 -17.78125 16.171875 -18.375 C 17.992188 -18.976562 19.703125 -19.597656 21.296875 -20.234375 C 22.890625 -20.878906 24.191406 -21.582031 25.203125 -22.34375 C 26.210938 -23.113281 26.71875 -23.972656 26.71875 -24.921875 C 26.71875 -25.742188 26.351562 -26.566406 25.625 -27.390625 C 24.90625 -28.222656 24.050781 -28.890625 23.0625 -29.390625 C 21.863281 -29.960938 20.539062 -30.351562 19.09375 -30.5625 C 17.644531 -30.769531 16.15625 -30.75 14.625 -30.5 C 12.269531 -30.175781 11.09375 -29.390625 11.09375 -28.140625 C 11.09375 -27.398438 11.320312 -26.757812 11.78125 -26.21875 C 12.238281 -25.6875 12.679688 -25.117188 13.109375 -24.515625 C 13.546875 -23.921875 13.765625 -23.148438 13.765625 -22.203125 C 13.765625 -20.878906 13.285156 -19.75 12.328125 -18.8125 C 11.378906 -17.882812 10.242188 -17.421875 8.921875 -17.421875 C 7.597656 -17.421875 6.472656 -17.882812 5.546875 -18.8125 C 4.617188 -19.75 4.15625 -20.878906 4.15625 -22.203125 C 4.15625 -23.804688 4.710938 -25.21875 5.828125 -26.4375 C 6.941406 -27.65625 8.316406 -28.644531 9.953125 -29.40625 C 11.585938 -30.175781 13.125 -30.664062 14.5625 -30.875 C 17.875 -31.375 20.769531 -30.984375 23.25 -29.703125 C 24.445312 -29.117188 25.476562 -28.300781 26.34375 -27.25 C 27.21875 -26.195312 27.65625 -24.90625 27.65625 -23.375 Z M 18.296875 -2.796875 L 18.296875 -18.71875 C 17.460938 -18.351562 16.539062 -17.847656 15.53125 -17.203125 C 14.519531 -16.566406 13.640625 -15.695312 12.890625 -14.59375 C 12.148438 -13.5 11.71875 -12.085938 11.59375 -10.359375 C 11.507812 -8.867188 11.632812 -7.554688 11.96875 -6.421875 C 12.300781 -5.285156 12.796875 -4.363281 13.453125 -3.65625 C 14.160156 -2.914062 14.976562 -2.460938 15.90625 -2.296875 C 16.832031 -2.128906 17.628906 -2.296875 18.296875 -2.796875 Z M 18.296875 -2.796875 "/></g></g></g><g fill="#171716" fill-opacity="1"><g transform="translate(173.635192, 247.533997)"><g><path d="M 29.703125 -4.65625 C 29.703125 -3.90625 29.945312 -3.238281 30.4375 -2.65625 C 30.9375 -2.082031 31.535156 -1.734375 32.234375 -1.609375 L 32.234375 -1.234375 L 21.640625 0.3125 L 21.453125 0.3125 C 21.160156 0.3125 20.910156 0.207031 20.703125 0 C 20.492188 -0.207031 20.390625 -0.457031 20.390625 -0.75 L 20.390625 -1.671875 C 19.234375 -1.097656 17.941406 -0.625 16.515625 -0.25 C 15.097656 0.125 13.664062 0.3125 12.21875 0.3125 C 10.769531 0.3125 9.425781 0.0351562 8.1875 -0.515625 C 6.945312 -1.078125 5.953125 -1.96875 5.203125 -3.1875 C 4.460938 -4.40625 4.09375 -6.070312 4.09375 -8.1875 L 4.09375 -25.484375 C 4.09375 -26.265625 3.84375 -26.929688 3.34375 -27.484375 C 2.851562 -28.046875 2.253906 -28.390625 1.546875 -28.515625 L 1.546875 -28.890625 L 12.15625 -30.4375 L 12.34375 -30.4375 C 13.039062 -30.4375 13.390625 -30.085938 13.390625 -29.390625 L 13.390625 -9.046875 C 13.390625 -8.015625 13.117188 -7.175781 12.578125 -6.53125 C 12.046875 -5.894531 11.507812 -5.304688 10.96875 -4.765625 C 10.4375 -4.234375 10.171875 -3.578125 10.171875 -2.796875 C 10.171875 -2.128906 10.570312 -1.597656 11.375 -1.203125 C 12.1875 -0.816406 13.191406 -0.625 14.390625 -0.625 C 15.953125 -0.625 17.300781 -0.835938 18.4375 -1.265625 C 19.582031 -1.703125 20.234375 -1.960938 20.390625 -2.046875 L 20.390625 -25.484375 C 20.390625 -26.265625 20.140625 -26.929688 19.640625 -27.484375 C 19.148438 -28.046875 18.554688 -28.390625 17.859375 -28.515625 L 17.859375 -28.890625 L 28.453125 -30.4375 L 28.640625 -30.4375 C 29.347656 -30.4375 29.703125 -30.085938 29.703125 -29.390625 Z M 29.703125 -4.65625 "/></g></g></g><g fill="#171716" fill-opacity="1"><g transform="translate(203.88688, 247.533997)"><g><path d="M 21.328125 -31.6875 C 22.648438 -31.644531 23.785156 -31.164062 24.734375 -30.25 C 25.679688 -29.34375 26.15625 -28.226562 26.15625 -26.90625 C 26.15625 -25.582031 25.679688 -24.445312 24.734375 -23.5 C 23.785156 -22.550781 22.648438 -22.078125 21.328125 -22.078125 C 20.046875 -22.078125 18.925781 -22.550781 17.96875 -23.5 C 17.019531 -24.445312 16.546875 -25.582031 16.546875 -26.90625 C 16.546875 -27.320312 16.578125 -27.628906 16.640625 -27.828125 C 16.703125 -28.035156 16.734375 -28.265625 16.734375 -28.515625 C 16.734375 -29.140625 16.40625 -29.453125 15.75 -29.453125 C 15.164062 -29.453125 14.378906 -29.203125 13.390625 -28.703125 L 13.390625 -3.40625 C 13.390625 -2.664062 13.632812 -2.003906 14.125 -1.421875 C 14.625 -0.847656 15.226562 -0.5 15.9375 -0.375 L 15.9375 0 L 1.546875 0 L 1.546875 -0.375 C 2.253906 -0.5 2.851562 -0.847656 3.34375 -1.421875 C 3.84375 -2.003906 4.09375 -2.664062 4.09375 -3.40625 L 4.09375 -25.484375 C 4.09375 -26.265625 3.84375 -26.929688 3.34375 -27.484375 C 2.851562 -28.046875 2.253906 -28.390625 1.546875 -28.515625 L 1.546875 -28.890625 L 12.15625 -30.4375 C 12.195312 -30.4375 12.226562 -30.4375 12.25 -30.4375 C 12.269531 -30.4375 12.300781 -30.4375 12.34375 -30.4375 C 12.664062 -30.4375 12.921875 -30.332031 13.109375 -30.125 C 13.296875 -29.925781 13.390625 -29.679688 13.390625 -29.390625 L 13.390625 -29.078125 C 14.503906 -29.660156 15.804688 -30.257812 17.296875 -30.875 C 18.785156 -31.5 20.128906 -31.769531 21.328125 -31.6875 Z M 21.328125 -31.6875 "/></g></g></g><g fill="#171716" fill-opacity="1"><g transform="translate(228.063347, 247.533997)"><g><path d="M 30.1875 -4.65625 C 30.1875 -3.90625 30.4375 -3.238281 30.9375 -2.65625 C 31.4375 -2.082031 32.035156 -1.734375 32.734375 -1.609375 L 32.734375 -1.234375 L 22.140625 0.3125 C 22.097656 0.3125 22.066406 0.3125 22.046875 0.3125 C 22.023438 0.3125 21.992188 0.3125 21.953125 0.3125 C 21.660156 0.3125 21.410156 0.195312 21.203125 -0.03125 C 20.992188 -0.257812 20.890625 -0.519531 20.890625 -0.8125 L 20.890625 -2.296875 C 19.734375 -1.390625 18.484375 -0.695312 17.140625 -0.21875 C 15.796875 0.257812 14.398438 0.414062 12.953125 0.25 C 10.890625 0.0390625 9.039062 -0.753906 7.40625 -2.140625 C 5.769531 -3.523438 4.488281 -5.300781 3.5625 -7.46875 C 2.632812 -9.632812 2.171875 -12 2.171875 -14.5625 C 2.171875 -17.007812 2.550781 -19.242188 3.3125 -21.265625 C 4.082031 -23.285156 5.109375 -25.03125 6.390625 -26.5 C 7.671875 -27.96875 9.09375 -29.09375 10.65625 -29.875 C 12.226562 -30.664062 13.820312 -31.0625 15.4375 -31.0625 C 16.507812 -31.0625 17.53125 -30.925781 18.5 -30.65625 C 19.476562 -30.382812 20.273438 -30.085938 20.890625 -29.765625 L 20.890625 -38.4375 C 20.890625 -39.1875 20.640625 -39.847656 20.140625 -40.421875 C 19.648438 -41.003906 19.054688 -41.359375 18.359375 -41.484375 L 18.359375 -41.84375 L 28.953125 -43.40625 C 28.992188 -43.40625 29.023438 -43.40625 29.046875 -43.40625 C 29.066406 -43.40625 29.097656 -43.40625 29.140625 -43.40625 C 29.835938 -43.40625 30.1875 -43.03125 30.1875 -42.28125 Z M 18.84375 -2.296875 C 19.46875 -2.296875 20.148438 -2.460938 20.890625 -2.796875 L 20.890625 -29.328125 C 20.148438 -29.660156 19.46875 -29.828125 18.84375 -29.828125 C 17.476562 -29.828125 16.238281 -29.207031 15.125 -27.96875 C 14.007812 -26.726562 13.109375 -25.070312 12.421875 -23 C 11.742188 -20.9375 11.40625 -18.625 11.40625 -16.0625 C 11.40625 -13.539062 11.742188 -11.234375 12.421875 -9.140625 C 13.109375 -7.054688 14.007812 -5.394531 15.125 -4.15625 C 16.238281 -2.914062 17.476562 -2.296875 18.84375 -2.296875 Z M 18.84375 -2.296875 "/></g></g></g><g fill="#171716" fill-opacity="1"><g transform="translate(111.009271, 256.597274)"><g><path d="M 2.5 0.09375 C 2.0625 0.09375 1.632812 0.0351562 1.21875 -0.078125 C 0.800781 -0.203125 0.46875 -0.359375 0.21875 -0.546875 L 0.65625 -1.53125 C 0.90625 -1.351562 1.191406 -1.207031 1.515625 -1.09375 C 1.847656 -0.988281 2.179688 -0.9375 2.515625 -0.9375 C 2.878906 -0.9375 3.148438 -0.988281 3.328125 -1.09375 C 3.503906 -1.207031 3.59375 -1.359375 3.59375 -1.546875 C 3.59375 -1.679688 3.539062 -1.789062 3.4375 -1.875 C 3.332031 -1.96875 3.195312 -2.039062 3.03125 -2.09375 C 2.875 -2.144531 2.65625 -2.203125 2.375 -2.265625 C 1.945312 -2.367188 1.597656 -2.46875 1.328125 -2.5625 C 1.054688 -2.664062 0.820312 -2.828125 0.625 -3.046875 C 0.4375 -3.273438 0.34375 -3.578125 0.34375 -3.953125 C 0.34375 -4.273438 0.425781 -4.566406 0.59375 -4.828125 C 0.769531 -5.097656 1.035156 -5.3125 1.390625 -5.46875 C 1.742188 -5.625 2.179688 -5.703125 2.703125 -5.703125 C 3.054688 -5.703125 3.398438 -5.65625 3.734375 -5.5625 C 4.078125 -5.476562 4.378906 -5.359375 4.640625 -5.203125 L 4.234375 -4.21875 C 3.722656 -4.507812 3.207031 -4.65625 2.6875 -4.65625 C 2.320312 -4.65625 2.050781 -4.59375 1.875 -4.46875 C 1.707031 -4.351562 1.625 -4.203125 1.625 -4.015625 C 1.625 -3.828125 1.722656 -3.6875 1.921875 -3.59375 C 2.117188 -3.5 2.425781 -3.40625 2.84375 -3.3125 C 3.269531 -3.207031 3.617188 -3.101562 3.890625 -3 C 4.160156 -2.90625 4.390625 -2.75 4.578125 -2.53125 C 4.773438 -2.3125 4.875 -2.015625 4.875 -1.640625 C 4.875 -1.316406 4.785156 -1.023438 4.609375 -0.765625 C 4.429688 -0.503906 4.160156 -0.296875 3.796875 -0.140625 C 3.441406 0.015625 3.007812 0.09375 2.5 0.09375 Z M 2.5 0.09375 "/></g></g></g><g fill="#171716" fill-opacity="1"><g transform="translate(119.16933, 256.597274)"><g><path d="M 3.34375 0.09375 C 2.769531 0.09375 2.253906 -0.0234375 1.796875 -0.265625 C 1.335938 -0.515625 0.972656 -0.859375 0.703125 -1.296875 C 0.441406 -1.742188 0.3125 -2.242188 0.3125 -2.796875 C 0.3125 -3.347656 0.441406 -3.84375 0.703125 -4.28125 C 0.972656 -4.726562 1.335938 -5.078125 1.796875 -5.328125 C 2.253906 -5.578125 2.773438 -5.703125 3.359375 -5.703125 C 3.835938 -5.703125 4.269531 -5.613281 4.65625 -5.4375 C 5.050781 -5.269531 5.382812 -5.023438 5.65625 -4.703125 L 4.828125 -3.9375 C 4.441406 -4.375 3.972656 -4.59375 3.421875 -4.59375 C 3.066406 -4.59375 2.753906 -4.515625 2.484375 -4.359375 C 2.210938 -4.210938 2 -4 1.84375 -3.71875 C 1.695312 -3.445312 1.625 -3.140625 1.625 -2.796875 C 1.625 -2.453125 1.695312 -2.144531 1.84375 -1.875 C 2 -1.601562 2.210938 -1.390625 2.484375 -1.234375 C 2.753906 -1.085938 3.066406 -1.015625 3.421875 -1.015625 C 3.972656 -1.015625 4.441406 -1.234375 4.828125 -1.671875 L 5.65625 -0.90625 C 5.382812 -0.582031 5.050781 -0.332031 4.65625 -0.15625 C 4.269531 0.0078125 3.832031 0.09375 3.34375 0.09375 Z M 3.34375 0.09375 "/></g></g></g><g fill="#171716" fill-opacity="1"><g transform="translate(128.0894, 256.597274)"><g><path d="M 4.359375 -1.203125 L 1.75 -1.203125 L 1.25 0 L -0.078125 0 L 2.421875 -5.59375 L 3.703125 -5.59375 L 6.203125 0 L 4.84375 0 Z M 3.9375 -2.1875 L 3.0625 -4.328125 L 2.171875 -2.1875 Z M 3.9375 -2.1875 "/></g></g></g><g fill="#171716" fill-opacity="1"><g transform="translate(137.273469, 256.597274)"><g><path d="M 5.796875 -5.59375 L 5.796875 0 L 4.734375 0 L 1.9375 -3.40625 L 1.9375 0 L 0.65625 0 L 0.65625 -5.59375 L 1.734375 -5.59375 L 4.515625 -2.203125 L 4.515625 -5.59375 Z M 5.796875 -5.59375 "/></g></g></g><g fill="#171716" fill-opacity="1"><g transform="translate(146.793548, 256.597274)"><g><path d="M 1.046875 0.0625 C 0.828125 0.0625 0.640625 -0.0078125 0.484375 -0.15625 C 0.335938 -0.3125 0.265625 -0.5 0.265625 -0.71875 C 0.265625 -0.945312 0.335938 -1.128906 0.484375 -1.265625 C 0.640625 -1.410156 0.828125 -1.484375 1.046875 -1.484375 C 1.265625 -1.484375 1.445312 -1.410156 1.59375 -1.265625 C 1.75 -1.128906 1.828125 -0.945312 1.828125 -0.71875 C 1.828125 -0.5 1.75 -0.3125 1.59375 -0.15625 C 1.445312 -0.0078125 1.265625 0.0625 1.046875 0.0625 Z M 1.046875 0.0625 "/></g></g></g><g fill="#171716" fill-opacity="1"><g transform="translate(151.945581, 256.597274)"><g><path d="M 1.953125 -4.5625 L 1.953125 -3.078125 L 4.546875 -3.078125 L 4.546875 -2.046875 L 1.953125 -2.046875 L 1.953125 0 L 0.65625 0 L 0.65625 -5.59375 L 4.890625 -5.59375 L 4.890625 -4.5625 Z M 1.953125 -4.5625 "/></g></g></g><g fill="#171716" fill-opacity="1"><g transform="translate(160.113646, 256.597274)"><g><path d="M 0.65625 -5.59375 L 1.953125 -5.59375 L 1.953125 -1.0625 L 4.765625 -1.0625 L 4.765625 0 L 0.65625 0 Z M 0.65625 -5.59375 "/></g></g></g><g fill="#171716" fill-opacity="1"><g transform="translate(168.001701, 256.597274)"><g><path d="M 4.359375 -1.203125 L 1.75 -1.203125 L 1.25 0 L -0.078125 0 L 2.421875 -5.59375 L 3.703125 -5.59375 L 6.203125 0 L 4.84375 0 Z M 3.9375 -2.1875 L 3.0625 -4.328125 L 2.171875 -2.1875 Z M 3.9375 -2.1875 "/></g></g></g><g fill="#171716" fill-opacity="1"><g transform="translate(177.185769, 256.597274)"><g><path d="M 4.453125 -2.890625 L 5.625 -2.890625 L 5.625 -0.609375 C 5.320312 -0.378906 4.96875 -0.203125 4.5625 -0.078125 C 4.164062 0.0351562 3.769531 0.09375 3.375 0.09375 C 2.789062 0.09375 2.265625 -0.0234375 1.796875 -0.265625 C 1.335938 -0.515625 0.972656 -0.859375 0.703125 -1.296875 C 0.441406 -1.742188 0.3125 -2.242188 0.3125 -2.796875 C 0.3125 -3.347656 0.441406 -3.84375 0.703125 -4.28125 C 0.972656 -4.726562 1.34375 -5.078125 1.8125 -5.328125 C 2.28125 -5.578125 2.804688 -5.703125 3.390625 -5.703125 C 3.878906 -5.703125 4.320312 -5.617188 4.71875 -5.453125 C 5.125 -5.285156 5.460938 -5.046875 5.734375 -4.734375 L 4.90625 -3.953125 C 4.5 -4.378906 4.015625 -4.59375 3.453125 -4.59375 C 3.097656 -4.59375 2.78125 -4.515625 2.5 -4.359375 C 2.226562 -4.210938 2.015625 -4.003906 1.859375 -3.734375 C 1.703125 -3.460938 1.625 -3.148438 1.625 -2.796875 C 1.625 -2.453125 1.703125 -2.144531 1.859375 -1.875 C 2.015625 -1.601562 2.226562 -1.390625 2.5 -1.234375 C 2.769531 -1.085938 3.082031 -1.015625 3.4375 -1.015625 C 3.8125 -1.015625 4.148438 -1.09375 4.453125 -1.25 Z M 4.453125 -2.890625 "/></g></g></g><g fill="#171716" fill-opacity="1"><g transform="translate(186.409837, 256.597274)"><g><path d="M 1.046875 0.0625 C 0.828125 0.0625 0.640625 -0.0078125 0.484375 -0.15625 C 0.335938 -0.3125 0.265625 -0.5 0.265625 -0.71875 C 0.265625 -0.945312 0.335938 -1.128906 0.484375 -1.265625 C 0.640625 -1.410156 0.828125 -1.484375 1.046875 -1.484375 C 1.265625 -1.484375 1.445312 -1.410156 1.59375 -1.265625 C 1.75 -1.128906 1.828125 -0.945312 1.828125 -0.71875 C 1.828125 -0.5 1.75 -0.3125 1.59375 -0.15625 C 1.445312 -0.0078125 1.265625 0.0625 1.046875 0.0625 Z M 1.046875 0.0625 "/></g></g></g><g fill="#171716" fill-opacity="1"><g transform="translate(191.561871, 256.597274)"><g><path d="M 2.5 0.09375 C 2.0625 0.09375 1.632812 0.0351562 1.21875 -0.078125 C 0.800781 -0.203125 0.46875 -0.359375 0.21875 -0.546875 L 0.65625 -1.53125 C 0.90625 -1.351562 1.191406 -1.207031 1.515625 -1.09375 C 1.847656 -0.988281 2.179688 -0.9375 2.515625 -0.9375 C 2.878906 -0.9375 3.148438 -0.988281 3.328125 -1.09375 C 3.503906 -1.207031 3.59375 -1.359375 3.59375 -1.546875 C 3.59375 -1.679688 3.539062 -1.789062 3.4375 -1.875 C 3.332031 -1.96875 3.195312 -2.039062 3.03125 -2.09375 C 2.875 -2.144531 2.65625 -2.203125 2.375 -2.265625 C 1.945312 -2.367188 1.597656 -2.46875 1.328125 -2.5625 C 1.054688 -2.664062 0.820312 -2.828125 0.625 -3.046875 C 0.4375 -3.273438 0.34375 -3.578125 0.34375 -3.953125 C 0.34375 -4.273438 0.425781 -4.566406 0.59375 -4.828125 C 0.769531 -5.097656 1.035156 -5.3125 1.390625 -5.46875 C 1.742188 -5.625 2.179688 -5.703125 2.703125 -5.703125 C 3.054688 -5.703125 3.398438 -5.65625 3.734375 -5.5625 C 4.078125 -5.476562 4.378906 -5.359375 4.640625 -5.203125 L 4.234375 -4.21875 C 3.722656 -4.507812 3.207031 -4.65625 2.6875 -4.65625 C 2.320312 -4.65625 2.050781 -4.59375 1.875 -4.46875 C 1.707031 -4.351562 1.625 -4.203125 1.625 -4.015625 C 1.625 -3.828125 1.722656 -3.6875 1.921875 -3.59375 C 2.117188 -3.5 2.425781 -3.40625 2.84375 -3.3125 C 3.269531 -3.207031 3.617188 -3.101562 3.890625 -3 C 4.160156 -2.90625 4.390625 -2.75 4.578125 -2.53125 C 4.773438 -2.3125 4.875 -2.015625 4.875 -1.640625 C 4.875 -1.316406 4.785156 -1.023438 4.609375 -0.765625 C 4.429688 -0.503906 4.160156 -0.296875 3.796875 -0.140625 C 3.441406 0.015625 3.007812 0.09375 2.5 0.09375 Z M 2.5 0.09375 "/></g></g></g><g fill="#171716" fill-opacity="1"><g transform="translate(199.721929, 256.597274)"><g><path d="M 1.828125 -4.546875 L 0.03125 -4.546875 L 0.03125 -5.59375 L 4.90625 -5.59375 L 4.90625 -4.546875 L 3.125 -4.546875 L 3.125 0 L 1.828125 0 Z M 1.828125 -4.546875 "/></g></g></g><g fill="#171716" fill-opacity="1"><g transform="translate(207.721984, 256.597274)"><g><path d="M 4.359375 -1.203125 L 1.75 -1.203125 L 1.25 0 L -0.078125 0 L 2.421875 -5.59375 L 3.703125 -5.59375 L 6.203125 0 L 4.84375 0 Z M 3.9375 -2.1875 L 3.0625 -4.328125 L 2.171875 -2.1875 Z M 3.9375 -2.1875 "/></g></g></g><g fill="#171716" fill-opacity="1"><g transform="translate(216.906053, 256.597274)"><g><path d="M 3.359375 -1.984375 L 3.359375 0 L 2.0625 0 L 2.0625 -2 L -0.109375 -5.59375 L 1.265625 -5.59375 L 2.765625 -3.109375 L 4.25 -5.59375 L 5.53125 -5.59375 Z M 3.359375 -1.984375 "/></g></g></g><g fill="#171716" fill-opacity="1"><g transform="translate(225.370118, 256.597274)"><g><path d="M 2.5 0.09375 C 2.0625 0.09375 1.632812 0.0351562 1.21875 -0.078125 C 0.800781 -0.203125 0.46875 -0.359375 0.21875 -0.546875 L 0.65625 -1.53125 C 0.90625 -1.351562 1.191406 -1.207031 1.515625 -1.09375 C 1.847656 -0.988281 2.179688 -0.9375 2.515625 -0.9375 C 2.878906 -0.9375 3.148438 -0.988281 3.328125 -1.09375 C 3.503906 -1.207031 3.59375 -1.359375 3.59375 -1.546875 C 3.59375 -1.679688 3.539062 -1.789062 3.4375 -1.875 C 3.332031 -1.96875 3.195312 -2.039062 3.03125 -2.09375 C 2.875 -2.144531 2.65625 -2.203125 2.375 -2.265625 C 1.945312 -2.367188 1.597656 -2.46875 1.328125 -2.5625 C 1.054688 -2.664062 0.820312 -2.828125 0.625 -3.046875 C 0.4375 -3.273438 0.34375 -3.578125 0.34375 -3.953125 C 0.34375 -4.273438 0.425781 -4.566406 0.59375 -4.828125 C 0.769531 -5.097656 1.035156 -5.3125 1.390625 -5.46875 C 1.742188 -5.625 2.179688 -5.703125 2.703125 -5.703125 C 3.054688 -5.703125 3.398438 -5.65625 3.734375 -5.5625 C 4.078125 -5.476562 4.378906 -5.359375 4.640625 -5.203125 L 4.234375 -4.21875 C 3.722656 -4.507812 3.207031 -4.65625 2.6875 -4.65625 C 2.320312 -4.65625 2.050781 -4.59375 1.875 -4.46875 C 1.707031 -4.351562 1.625 -4.203125 1.625 -4.015625 C 1.625 -3.828125 1.722656 -3.6875 1.921875 -3.59375 C 2.117188 -3.5 2.425781 -3.40625 2.84375 -3.3125 C 3.269531 -3.207031 3.617188 -3.101562 3.890625 -3 C 4.160156 -2.90625 4.390625 -2.75 4.578125 -2.53125 C 4.773438 -2.3125 4.875 -2.015625 4.875 -1.640625 C 4.875 -1.316406 4.785156 -1.023438 4.609375 -0.765625 C 4.429688 -0.503906 4.160156 -0.296875 3.796875 -0.140625 C 3.441406 0.015625 3.007812 0.09375 2.5 0.09375 Z M 2.5 0.09375 "/></g></g></g><g fill="#171716" fill-opacity="1"><g transform="translate(233.530177, 256.597274)"><g><path d="M 4.359375 -1.203125 L 1.75 -1.203125 L 1.25 0 L -0.078125 0 L 2.421875 -5.59375 L 3.703125 -5.59375 L 6.203125 0 L 4.84375 0 Z M 3.9375 -2.1875 L 3.0625 -4.328125 L 2.171875 -2.1875 Z M 3.9375 -2.1875 "/></g></g></g><g fill="#171716" fill-opacity="1"><g transform="translate(242.714246, 256.597274)"><g><path d="M 1.953125 -4.5625 L 1.953125 -3.078125 L 4.546875 -3.078125 L 4.546875 -2.046875 L 1.953125 -2.046875 L 1.953125 0 L 0.65625 0 L 0.65625 -5.59375 L 4.890625 -5.59375 L 4.890625 -4.5625 Z M 1.953125 -4.5625 "/></g></g></g><g fill="#171716" fill-opacity="1"><g transform="translate(250.88231, 256.597274)"><g><path d="M 5 -1.046875 L 5 0 L 0.65625 0 L 0.65625 -5.59375 L 4.890625 -5.59375 L 4.890625 -4.5625 L 1.953125 -4.5625 L 1.953125 -3.34375 L 4.546875 -3.34375 L 4.546875 -2.34375 L 1.953125 -2.34375 L 1.953125 -1.046875 Z M 5 -1.046875 "/></g></g></g></svg>